# xmcd CD database file
#
# Track frame offsets:
#	182
#	18832
#	33417
#	47787
#	65465
#	78012
#	93687
#	111982
#	131970
#	144802
#	166462
#	178030
#	190105
#
# Disc length: 2747 seconds
#
# Revision: 1
# Processed by: cddbd v1.5.2PL0 Copyright (c) Steve Scherf et al.
# Submitted via: CDex 1.79
#
DISCID=ac0ab90d
DTITLE=Jeff Turner - Songs Of Australia
DYEAR=1993
DGENRE=Country
TTITLE0=Have You Ever Been To Sidney In The Spring?
TTITLE1=Sunshine Girl
TTITLE2=The Kangaroo Kid
TTITLE3=I Still Call Australia Home
TTITLE4=A Little Bit Of Love
TTITLE5=No Fax, No Telephone
TTITLE6=Johnny Just Wanted To Waltz
TTITLE7=Tie Me Kangaroo Down Sport
TTITLE8=Home Among The Gum Trees
TTITLE9=(The Original) Waltzing Matilda
TTITLE10=One Small Photograph Of You
TTITLE11=Duncan
TTITLE12=Okey Dokey
EXTD=YEAR: 1993
EXTT0=
EXTT1=
EXTT2=
EXTT3=
EXTT4=
EXTT5=
EXTT6=
EXTT7=
EXTT8=
EXTT9=
EXTT10=
EXTT11=
EXTT12=
PLAYORDER=
